<svg width="283" height="388" viewBox="0 0 283 388" fill="none" xmlns="http://www.w3.org/2000/svg">
<g clip-path="url(#clip0_1225_11201)">
<path d="M254.355 99.5952C258.182 108.027 258.589 112.861 260.869 121.784C262.562 128.409 259.012 134.875 260.869 142.388C262.106 147.364 266.113 155.669 269.223 159.79C271.829 163.213 274.32 166.716 276.73 170.282C277.984 172.152 279.238 174.086 279.645 176.289C280.46 180.711 276.128 184.308 272.268 186.765C268.409 189.221 265.152 190.949 260.624 191.789C259.892 203.105 259.159 214.437 258.442 225.753C258.117 230.889 257.775 236.103 256.13 241C254.485 245.898 251.407 250.541 246.766 253.014C243.346 254.836 239.373 255.375 235.481 255.565C211.981 256.722 189.557 246.69 168.647 236.182C164.918 234.312 163.159 230.001 159.332 228.305C155 226.387 144.285 217.258 145.229 213.708C147.037 206.893 163.582 203.565 168.468 198.366C171.692 194.943 175.943 192.629 179.819 189.919C191.788 181.519 200.224 169.125 206.575 156.16C212.926 143.196 217.469 129.471 223.316 116.284C226.052 110.103 229.113 104.001 230.628 97.4397C231.719 92.7484 231.735 61.9221 237.923 64.0775C241.506 65.3296 244.519 78.7537 246.603 81.6383C247.857 83.3658 250.186 90.4979 254.322 99.611L254.355 99.5952Z" stroke="#A9B489" stroke-width="2" stroke-miterlimit="10"/>
<path d="M247.76 56.6286C247.76 56.6286 298.601 149.298 158.192 213.534C113.327 234.058 280.33 219.62 280.33 386.288C280.33 394.213 264.142 372.088 264.045 372.024C259.159 368.854 194.019 302.289 123.994 294.364C90.2842 290.544 25.5352 275.805 6.74238 210.364C-11.0245 148.505 5.86299 67.5803 62.6486 24.7562C83.1514 9.30343 111.292 -1.71164 149.757 0.22194C231.475 4.32684 247.76 56.6286 247.76 56.6286Z" fill="#5E7153"/>
<path d="M253.817 95.0466C253.817 95.0466 260.022 134.004 247.89 153.894C242.63 162.532 203.709 207.258 198.693 209.572C193.677 211.886 235.318 158.585 237.418 143.307C239.519 128.028 240.48 103.272 240.48 103.272L253.817 95.0308V95.0466Z" fill="#5E7153"/>
</g>
<defs>
<clipPath id="clip0_1225_11201">
<rect width="283" height="388" fill="white"/>
</clipPath>
</defs>
</svg>
