<svg width="48" height="51" viewBox="0 0 48 51" fill="none" xmlns="http://www.w3.org/2000/svg">
<path d="M23.7656 0C30.2344 0 31.0312 0.0495109 33.5625 0.148533C36.0469 0.247555 37.7812 0.693153 39.3281 1.3368C40.9219 1.98044 42.2344 2.82212 43.5469 4.20843C44.8594 5.59474 45.6562 6.98104 46.2656 8.66441C46.875 10.2983 47.2969 12.1302 47.3906 14.7543C47.4844 17.4279 47.5312 18.2695 47.5312 25.102C47.5312 31.9346 47.4844 32.7762 47.3906 35.4498C47.2969 38.0739 46.875 39.9058 46.2656 41.5397C45.6562 43.223 44.8594 44.6094 43.5469 45.9957C42.2344 47.382 40.9219 48.2237 39.3281 48.8673C37.7812 49.5109 36.0469 49.9565 33.5625 50.0556C31.0312 50.1546 30.2344 50.2041 23.7656 50.2041C17.2969 50.2041 16.5 50.1546 13.9688 50.0556C11.4844 49.9565 9.75 49.5109 8.20312 48.8673C6.60938 48.2237 5.29688 47.382 3.98438 45.9957C2.67188 44.6094 1.875 43.223 1.26562 41.5397C0.65625 39.9058 0.234375 38.0739 0.140625 35.4498C0.046875 32.7762 0 31.9346 0 25.102C0 18.2695 0.046875 17.4279 0.140625 14.7543C0.234375 12.1302 0.65625 10.2983 1.26562 8.66441C1.875 6.98104 2.67188 5.59474 3.98438 4.20843C5.29688 2.82212 6.60938 1.98044 8.20312 1.3368C9.75 0.693153 11.4844 0.247555 13.9688 0.148533C16.5 0.0495109 17.2969 0 23.7656 0ZM23.7656 3.26772C17.0156 3.26772 16.2188 3.31723 13.5938 3.41625C11.1562 3.51528 9.79688 4.01039 8.90625 4.35696C6.60938 5.34718 5.0625 6.98104 4.125 9.40708C3.79688 10.3478 3.32812 11.7836 3.23438 14.3582C3.14062 17.1308 3.09375 17.9725 3.09375 25.102C3.09375 32.2316 3.14062 33.0733 3.23438 35.8459C3.32812 38.4205 3.79688 39.8563 4.125 40.797C5.0625 43.223 6.60938 44.8569 8.90625 45.8471C9.79688 46.1937 11.1562 46.6888 13.5938 46.7878C16.2188 46.8869 17.0156 46.9364 23.7656 46.9364C30.5156 46.9364 31.3125 46.8869 33.9375 46.7878C36.375 46.6888 37.7344 46.1937 38.625 45.8471C40.9219 44.8569 42.4688 43.223 43.4062 40.797C43.7344 39.8563 44.2031 38.4205 44.2969 35.8459C44.3906 33.0733 44.4375 32.2316 44.4375 25.102C44.4375 17.9725 44.3906 17.1308 44.2969 14.3582C44.2031 11.7836 43.7344 10.3478 43.4062 9.40708C42.4688 6.98104 40.9219 5.34718 38.625 4.35696C37.7344 4.01039 36.375 3.51528 33.9375 3.41625C31.3125 3.31723 30.5156 3.26772 23.7656 3.26772ZM23.7656 35.1528C29.0156 35.1528 33.2812 30.6473 33.2812 25.102C33.2812 19.5568 29.0156 15.0513 23.7656 15.0513C18.5156 15.0513 14.25 19.5568 14.25 25.102C14.25 30.6473 18.5156 35.1528 23.7656 35.1528ZM23.7656 12.2292C30.5156 12.2292 35.9531 17.9725 35.9531 25.102C35.9531 32.2316 30.5156 37.9749 23.7656 37.9749C17.0156 37.9749 11.5781 32.2316 11.5781 25.102C11.5781 17.9725 17.0156 12.2292 23.7656 12.2292ZM39.3281 11.7341C39.3281 13.4175 38.0156 14.7047 36.4219 14.7047C34.8281 14.7047 33.6094 13.4175 33.6094 11.7341C33.6094 10.0507 34.8281 8.66441 36.4219 8.66441C38.0156 8.66441 39.3281 10.0507 39.3281 11.7341Z" fill="#FD6F2F"/>
</svg>
