<svg width="44" height="46" viewBox="0 0 44 46" fill="none" xmlns="http://www.w3.org/2000/svg">
<path d="M12 27.3503L15.99 22.2909C17.264 20.6791 17.9 19.8721 18.666 19.8721C19.432 19.8721 20.07 20.6791 21.342 22.2909L22.658 23.9597C23.93 25.5716 24.566 26.3785 25.334 26.3785C26.1 26.3785 26.736 25.5716 28.01 23.9597L32 18.9004" stroke="#FD6F2F" stroke-width="3" stroke-linecap="round" stroke-linejoin="round"/>
<path d="M22 44.2493C33.046 44.2493 42 34.7918 42 23.1247C42 11.4575 33.046 2 22 2C10.954 2 2 11.4575 2 23.1247C2 26.0378 2.56 28.8135 3.568 31.3379C4.126 32.7322 4.404 33.4293 4.44 33.9574C4.474 34.4855 4.326 35.0643 4.032 36.2241L2 44.2493L9.598 42.1031C10.696 41.7925 11.244 41.6383 11.744 41.6721C12.244 41.7101 12.904 42.0038 14.224 42.5932C16.6853 43.6881 19.3293 44.2512 22 44.2493Z" stroke="#FD6F2F" stroke-width="3" stroke-linecap="round" stroke-linejoin="round"/>
</svg>
