<svg width="42" height="44" viewBox="0 0 42 44" fill="none" xmlns="http://www.w3.org/2000/svg">
<path d="M2 22.0684C2 12.6088 2 7.87688 4.782 4.93844C7.564 2 12.042 2 21 2C29.956 2 34.436 2 37.218 4.93844C40 7.87688 40 12.6067 40 22.0684C40 31.5281 40 36.26 37.218 39.1984C34.436 42.1369 29.958 42.1369 21 42.1369C12.044 42.1369 7.564 42.1369 4.782 39.1984C2 36.26 2 31.5302 2 22.0684Z" stroke="#FD6F2F" stroke-width="3" stroke-linecap="round" stroke-linejoin="round"/>
<path d="M18.072 19.9729C16.432 19.7278 12.692 20.1313 10.86 23.712C9.02799 27.2926 10.874 31.019 12.028 32.4343C13.166 33.7588 16.784 36.2663 20.622 33.818C21.574 33.2117 22.76 32.7575 24.104 28.015L23.948 9.35352C23.688 11.4089 25.838 16.2296 31.956 16.8" stroke="#FD6F2F" stroke-width="3" stroke-linecap="round" stroke-linejoin="round"/>
</svg>
